<svg width="126" height="26" viewBox="0 0 126 26" fill="none" xmlns="http://www.w3.org/2000/svg">
<path fill-rule="evenodd" clip-rule="evenodd" d="M22.8344 5.78335V8.82439C22.8444 9.65123 22.5322 10.4483 21.9665 11.0401C21.4008 11.6319 20.6279 11.9701 19.818 11.9802H18.5814C18.1625 11.9344 17.8448 11.5735 17.8448 11.1434C17.8448 10.7133 18.1625 10.3524 18.5814 10.3067H19.7805C20.1598 10.3041 20.5224 10.1473 20.7879 9.87078C21.0535 9.59431 21.2 9.22111 21.195 8.83395V5.78335C21.1849 4.99015 20.5575 4.34964 19.7805 4.33934H16.7922C16.0109 4.33934 15.3776 4.98585 15.3776 5.78335V10.3449C15.3624 10.8075 14.9879 11.1728 14.5345 11.1673C14.3167 11.1623 14.1099 11.0685 13.9603 10.9068C13.8107 10.7451 13.7307 10.529 13.7383 10.3067V5.78335C13.7358 4.95487 14.0564 4.15946 14.6294 3.57273C15.2024 2.98601 15.9806 2.65625 16.7922 2.65625H19.7805C21.454 2.69682 22.7998 4.07485 22.8344 5.78335ZM8.70782 2.65625H5.7195C4.03197 2.66669 2.66648 4.06064 2.65625 5.78335V8.83395C2.66652 10.5551 4.03349 11.9463 5.7195 11.9515H8.70782C9.51938 11.954 10.2986 11.6267 10.8733 11.0418C11.448 10.4568 11.7711 9.66243 11.7711 8.83395V5.78335C11.7659 4.05848 10.3975 2.6615 8.70782 2.65625ZM10.1217 8.83413C10.1267 9.22129 9.98018 9.59449 9.71463 9.87096C9.44908 10.1474 9.08645 10.3043 8.70717 10.3068H5.71886C5.33393 10.3147 4.96249 10.1621 4.69025 9.88418C4.41801 9.60627 4.2685 9.22708 4.27623 8.83413V5.78353C4.27615 5.39553 4.42903 5.02383 4.70042 4.75218C4.9718 4.48054 5.33886 4.33181 5.71886 4.33952H8.70717C9.48627 4.34473 10.1166 4.9882 10.1217 5.78353V8.83413ZM16.7912 13.548H19.7795C21.4655 13.5532 22.8325 14.9444 22.8428 16.6655V19.7161C22.8325 21.4388 21.467 22.8328 19.7795 22.8432H16.7912C15.1052 22.8327 13.7424 21.4373 13.7373 19.7161V16.6655C13.7373 14.9437 15.1046 13.548 16.7912 13.548ZM20.7826 20.7401C21.0484 20.4688 21.1966 20.1 21.1941 19.7162V16.6656C21.1941 16.2827 21.0451 15.9154 20.7798 15.6446C20.5145 15.3738 20.1547 15.2216 19.7796 15.2216H16.7913C16.01 15.2216 15.3767 15.8681 15.3767 16.6656V19.7162C15.3742 20.1 15.5224 20.4688 15.7883 20.7401C16.0541 21.0115 16.4153 21.1628 16.7913 21.1602H19.7796C20.1555 21.1628 20.5168 21.0115 20.7826 20.7401ZM2.65625 19.7071V16.6661C2.65625 15.8376 2.97928 15.0432 3.55402 14.4583C4.12876 13.8733 4.90794 13.546 5.7195 13.5486H6.94668C7.26045 13.5143 7.56586 13.6658 7.73325 13.9389C7.90064 14.212 7.90064 14.5587 7.73325 14.8317C7.56586 15.1048 7.26045 15.2564 6.94668 15.2221H5.7195C4.93675 15.2221 4.30076 15.867 4.29561 16.6661V19.6784C4.31551 20.4711 4.94293 21.1074 5.7195 21.1225H8.72655C9.10333 21.125 9.46553 20.974 9.73284 20.7029C10.0001 20.4318 10.1505 20.0631 10.1504 19.6784V15.1551C10.0894 14.8174 10.2355 14.4756 10.5197 14.2916C10.8038 14.1077 11.169 14.1185 11.4422 14.319C11.7155 14.5195 11.8419 14.8694 11.7617 15.203V19.7071C11.7617 21.4342 10.3902 22.8342 8.69845 22.8342H5.7195C4.04234 22.7987 2.69105 21.4193 2.65625 19.7071Z" fill="url(#paint0_linear_74_4098)"/>
<path d="M39.9196 8.09091V10.6264H31.9237V8.09091H39.9196ZM33.8977 4.75852H37.1758V17.8164C37.1758 18.2571 37.2422 18.5952 37.375 18.8306C37.5139 19.06 37.695 19.217 37.9183 19.3015C38.1417 19.386 38.3892 19.4283 38.6609 19.4283C38.8661 19.4283 39.0533 19.4132 39.2223 19.383C39.3974 19.3528 39.5302 19.3256 39.6208 19.3015L40.1731 21.8642C39.9981 21.9245 39.7475 21.9909 39.4215 22.0634C39.1016 22.1358 38.7092 22.1781 38.2443 22.1902C37.4233 22.2143 36.6838 22.0906 36.0258 21.8189C35.3677 21.5412 34.8455 21.1126 34.4592 20.533C34.0789 19.9535 33.8917 19.229 33.8977 18.3597V4.75852ZM48.5788 22.2717C47.2205 22.2717 46.0433 21.9728 45.0472 21.3752C44.0511 20.7775 43.2784 19.9414 42.729 18.8668C42.1857 17.7923 41.914 16.5366 41.914 15.0998C41.914 13.663 42.1857 12.4043 42.729 11.3237C43.2784 10.2431 44.0511 9.40394 45.0472 8.80629C46.0433 8.20863 47.2205 7.9098 48.5788 7.9098C49.9371 7.9098 51.1143 8.20863 52.1104 8.80629C53.1065 9.40394 53.8762 10.2431 54.4195 11.3237C54.9689 12.4043 55.2436 13.663 55.2436 15.0998C55.2436 16.5366 54.9689 17.7923 54.4195 18.8668C53.8762 19.9414 53.1065 20.7775 52.1104 21.3752C51.1143 21.9728 49.9371 22.2717 48.5788 22.2717ZM48.5969 19.6456C49.3334 19.6456 49.9492 19.4434 50.4442 19.0389C50.9393 18.6284 51.3075 18.079 51.549 17.3908C51.7965 16.7026 51.9203 15.9359 51.9203 15.0907C51.9203 14.2395 51.7965 13.4698 51.549 12.7816C51.3075 12.0874 50.9393 11.535 50.4442 11.1245C49.9492 10.714 49.3334 10.5087 48.5969 10.5087C47.8423 10.5087 47.2145 10.714 46.7134 11.1245C46.2184 11.535 45.8471 12.0874 45.5996 12.7816C45.3581 13.4698 45.2374 14.2395 45.2374 15.0907C45.2374 15.9359 45.3581 16.7026 45.5996 17.3908C45.8471 18.079 46.2184 18.6284 46.7134 19.0389C47.2145 19.4434 47.8423 19.6456 48.5969 19.6456ZM63.1874 22.2445C62.0947 22.2445 61.1168 21.9638 60.2535 21.4023C59.3902 20.8409 58.708 20.0259 58.207 18.9574C57.7059 17.8888 57.4554 16.5909 57.4554 15.0636C57.4554 13.5181 57.7089 12.2141 58.216 11.1516C58.7292 10.0831 59.4204 9.27717 60.2897 8.73384C61.159 8.18448 62.128 7.9098 63.1965 7.9098C64.0115 7.9098 64.6816 8.04865 65.2068 8.32635C65.732 8.59801 66.1485 8.92702 66.4564 9.31339C66.7643 9.69371 67.0028 10.0529 67.1718 10.391H67.3076V3.45454H70.5947V22H67.371V19.8086H67.1718C67.0028 20.1467 66.7583 20.5059 66.4383 20.8862C66.1184 21.2605 65.6958 21.5804 65.1706 21.8461C64.6454 22.1117 63.9843 22.2445 63.1874 22.2445ZM64.102 19.555C64.7963 19.555 65.3879 19.3679 65.8769 18.9936C66.3659 18.6133 66.7371 18.085 66.9907 17.4089C67.2443 16.7328 67.371 15.945 67.371 15.0455C67.371 14.146 67.2443 13.3642 66.9907 12.7001C66.7432 12.036 66.3749 11.5199 65.8859 11.1516C65.403 10.7834 64.8083 10.5993 64.102 10.5993C63.3716 10.5993 62.7618 10.7894 62.2728 11.1697C61.7838 11.5501 61.4156 12.0753 61.1681 12.7454C60.9206 13.4155 60.7968 14.1822 60.7968 15.0455C60.7968 15.9148 60.9206 16.6905 61.1681 17.3727C61.4216 18.0488 61.7929 18.5831 62.2819 18.9755C62.7769 19.3619 63.3836 19.555 64.102 19.555ZM80.155 22.2717C78.7967 22.2717 77.6195 21.9728 76.6234 21.3752C75.6273 20.7775 74.8546 19.9414 74.3052 18.8668C73.7619 17.7923 73.4902 16.5366 73.4902 15.0998C73.4902 13.663 73.7619 12.4043 74.3052 11.3237C74.8546 10.2431 75.6273 9.40394 76.6234 8.80629C77.6195 8.20863 78.7967 7.9098 80.155 7.9098C81.5133 7.9098 82.6905 8.20863 83.6866 8.80629C84.6827 9.40394 85.4524 10.2431 85.9957 11.3237C86.5451 12.4043 86.8198 13.663 86.8198 15.0998C86.8198 16.5366 86.5451 17.7923 85.9957 18.8668C85.4524 19.9414 84.6827 20.7775 83.6866 21.3752C82.6905 21.9728 81.5133 22.2717 80.155 22.2717ZM80.1731 19.6456C80.9096 19.6456 81.5254 19.4434 82.0204 19.0389C82.5154 18.6284 82.8837 18.079 83.1252 17.3908C83.3727 16.7026 83.4964 15.9359 83.4964 15.0907C83.4964 14.2395 83.3727 13.4698 83.1252 12.7816C82.8837 12.0874 82.5154 11.535 82.0204 11.1245C81.5254 10.714 80.9096 10.5087 80.1731 10.5087C79.4185 10.5087 78.7906 10.714 78.2896 11.1245C77.7945 11.535 77.4233 12.0874 77.1758 12.7816C76.9343 13.4698 76.8135 14.2395 76.8135 15.0907C76.8135 15.9359 76.9343 16.7026 77.1758 17.3908C77.4233 18.079 77.7945 18.6284 78.2896 19.0389C78.7906 19.4434 79.4185 19.6456 80.1731 19.6456ZM92.8801 3.45454V22H89.602V3.45454H92.8801ZM96.251 22V8.09091H99.529V22H96.251ZM97.899 6.11683C97.3799 6.11683 96.9331 5.94478 96.5588 5.60067C96.1845 5.25053 95.9974 4.83096 95.9974 4.34197C95.9974 3.84695 96.1845 3.42738 96.5588 3.08327C96.9331 2.73313 97.3799 2.55806 97.899 2.55806C98.4242 2.55806 98.871 2.73313 99.2392 3.08327C99.6135 3.42738 99.8007 3.84695 99.8007 4.34197C99.8007 4.83096 99.6135 5.25053 99.2392 5.60067C98.871 5.94478 98.4242 6.11683 97.899 6.11683ZM113.893 11.7674L110.905 12.0934C110.82 11.7915 110.672 11.5078 110.461 11.2422C110.256 10.9766 109.978 10.7623 109.628 10.5993C109.278 10.4363 108.849 10.3548 108.342 10.3548C107.66 10.3548 107.086 10.5027 106.622 10.7985C106.163 11.0943 105.936 11.4776 105.942 11.9485C105.936 12.353 106.084 12.682 106.386 12.9355C106.694 13.1891 107.201 13.3974 107.908 13.5604L110.28 14.0675C111.596 14.3512 112.574 14.801 113.214 15.4167C113.86 16.0325 114.186 16.8384 114.192 17.8345C114.186 18.7099 113.929 19.4826 113.422 20.1527C112.921 20.8168 112.224 21.3359 111.33 21.7102C110.437 22.0845 109.411 22.2717 108.252 22.2717C106.549 22.2717 105.179 21.9155 104.14 21.2031C103.102 20.4847 102.483 19.4856 102.284 18.2058L105.481 17.8979C105.626 18.5257 105.933 18.9996 106.404 19.3196C106.875 19.6396 107.488 19.7995 108.243 19.7995C109.021 19.7995 109.646 19.6396 110.117 19.3196C110.594 18.9996 110.832 18.6042 110.832 18.1333C110.832 17.7349 110.678 17.4059 110.371 17.1463C110.069 16.8867 109.598 16.6875 108.958 16.5487L106.585 16.0506C105.251 15.7729 104.264 15.305 103.624 14.647C102.984 13.983 102.667 13.1438 102.673 12.1296C102.667 11.2724 102.9 10.5298 103.371 9.90199C103.848 9.26811 104.509 8.77912 105.354 8.43501C106.205 8.08487 107.186 7.9098 108.297 7.9098C109.927 7.9098 111.21 8.25692 112.145 8.95117C113.087 9.64542 113.67 10.5842 113.893 11.7674ZM123.84 8.09091V10.6264H115.845V8.09091H123.84ZM117.819 4.75852H121.097V17.8164C121.097 18.2571 121.163 18.5952 121.296 18.8306C121.435 19.06 121.616 19.217 121.839 19.3015C122.063 19.386 122.31 19.4283 122.582 19.4283C122.787 19.4283 122.974 19.4132 123.143 19.383C123.318 19.3528 123.451 19.3256 123.542 19.3015L124.094 21.8642C123.919 21.9245 123.668 21.9909 123.342 22.0634C123.022 22.1358 122.63 22.1781 122.165 22.1902C121.344 22.2143 120.605 22.0906 119.947 21.8189C119.289 21.5412 118.766 21.1126 118.38 20.533C118 19.9535 117.813 19.229 117.819 18.3597V4.75852Z" fill="url(#paint1_linear_74_4098)"/>
<defs>
<linearGradient id="paint0_linear_74_4098" x1="29.6472" y1="45.133" x2="-10.0673" y2="37.9792" gradientUnits="userSpaceOnUse">
<stop stop-color="#DD5E89"/>
<stop offset="1" stop-color="#F7BB97"/>
</linearGradient>
<linearGradient id="paint1_linear_74_4098" x1="157.25" y1="53.6562" x2="24.4375" y2="-35.0625" gradientUnits="userSpaceOnUse">
<stop stop-color="#DD5E89"/>
<stop offset="1" stop-color="#F7BB97"/>
</linearGradient>
</defs>
</svg>